<svg xmlns="http://www.w3.org/2000/svg" width="377" height="377" viewBox="0 0 377 377" fill="none"><path d="M376.079 176.172C375.886 176.365 375.692 176.558 375.499 176.751C373.891 178.36 371.703 180.29 369.064 182.414C366.426 184.538 363.53 186.79 360.312 189.042C357.159 191.359 353.748 193.611 350.144 195.928C346.541 198.245 343.001 200.304 339.526 202.17C336.759 203.65 333.541 205.324 329.873 207.19C326.205 208.992 322.344 210.729 318.354 212.274C314.3 213.818 310.181 215.17 305.934 216.199C301.687 217.229 297.697 217.744 293.964 217.744C290.618 217.744 287.529 217.422 284.826 216.778C285.277 216.907 276.396 212.531 277.297 213.239C275.044 211.501 273.049 209.12 271.312 206.096C269.574 203.071 268.094 199.21 266.807 194.384C266.228 192.389 265.713 190.201 265.263 187.948C264.812 185.632 264.426 183.379 263.976 181.127C263.525 178.875 263.139 176.687 262.753 174.563C262.367 172.439 261.916 170.573 261.402 169.029C260.887 167.42 260.308 166.133 259.664 165.232C259.021 164.266 258.313 163.816 257.54 163.816C256.318 163.816 254.516 164.524 252.263 165.875C250.011 167.227 247.373 169.286 244.348 171.86C241.323 174.499 237.977 177.587 234.373 181.256C230.77 184.924 226.973 188.978 223.047 193.483C215.261 202.556 208.632 209.442 203.291 214.14C197.885 218.838 192.994 221.219 188.554 221.219C181.926 221.219 177.421 219.159 175.104 215.105C172.981 210.987 171.694 204.037 171.179 194.255C170.921 184.795 169.827 177.459 168.09 172.311C166.288 167.162 164.036 164.652 161.204 164.652C159.466 164.652 156.957 165.682 153.61 167.741C150.264 169.801 146.532 172.568 142.349 176.172C138.166 179.775 133.597 183.958 128.706 188.849C123.815 193.74 118.924 199.017 113.969 204.744C112.618 206.225 111.073 207.962 109.336 209.957C107.598 211.888 105.86 213.883 104.059 215.877C102.257 217.872 100.519 219.739 98.846 221.476C97.1728 223.214 95.6927 224.694 94.47 225.788C91.7028 228.426 88.2921 229.778 84.3665 229.778C77.0303 229.778 72.2682 227.332 69.9515 222.441C69.3723 221.154 68.9218 220.189 68.6001 219.353C68.2783 218.58 68.0209 217.808 67.8278 216.971C67.6348 216.199 67.5061 215.298 67.4417 214.397C67.3774 213.432 67.3774 212.209 67.3774 210.729C67.3774 209.828 67.3774 208.992 67.4417 208.155C67.313 209.764 67.2487 211.566 67.2487 213.432C67.2487 214.912 67.2487 216.135 67.313 217.1C67.3774 218.065 67.5061 218.902 67.6991 219.674C67.8922 220.447 68.1496 221.219 68.4714 222.055C68.7931 222.828 69.2436 223.857 69.8228 225.144C72.1395 230.035 76.966 232.481 84.2378 232.481C88.1634 232.481 91.5741 231.129 94.3413 228.491C95.564 227.332 97.0441 225.917 98.7173 224.179C100.39 222.441 102.128 220.575 103.93 218.58C105.732 216.585 107.469 214.655 109.207 212.66C110.944 210.729 112.489 208.992 113.84 207.447C118.731 201.72 123.622 196.443 128.577 191.552C133.468 186.661 138.037 182.478 142.22 178.875C146.403 175.271 150.135 172.504 153.482 170.444C156.828 168.385 159.338 167.355 161.075 167.355C163.842 167.355 166.159 169.929 167.961 175.013C169.763 180.162 170.793 187.433 171.05 196.958C171.5 206.675 172.852 213.625 174.976 217.808C177.292 221.862 181.733 223.922 188.425 223.922C192.866 223.922 197.757 221.541 203.162 216.843C208.568 212.145 215.132 205.259 222.919 196.185C226.844 191.681 230.641 187.562 234.245 183.958C237.848 180.29 241.195 177.201 244.219 174.563C247.244 171.924 249.882 169.929 252.135 168.578C254.387 167.227 256.125 166.519 257.412 166.519C258.184 166.519 258.892 166.969 259.535 167.935C260.179 168.9 260.758 170.123 261.273 171.731C261.788 173.34 262.238 175.206 262.624 177.266C263.01 179.389 263.397 181.577 263.847 183.83C264.297 186.082 264.684 188.399 265.134 190.651C265.585 192.968 266.099 195.091 266.679 197.086C267.901 201.849 269.446 205.774 271.183 208.799C272.921 211.823 274.916 214.204 277.168 215.942C279.42 217.679 281.93 218.838 284.697 219.481C287.465 220.125 290.489 220.447 293.835 220.447C297.568 220.447 301.558 219.932 305.805 218.902C310.052 217.872 314.171 216.585 318.225 214.977C322.28 213.432 326.141 211.695 329.744 209.893C333.413 208.091 336.63 206.418 339.397 204.873C342.872 203.007 346.412 200.883 350.016 198.631C353.619 196.314 357.03 194.062 360.183 191.745C363.337 189.428 366.297 187.24 368.935 185.117C371.574 182.993 373.698 181.127 375.371 179.454C375.564 179.261 375.757 179.068 375.95 178.875C376.079 182.028 376.207 185.181 376.207 188.334C376.207 191.295 376.143 194.255 376.014 197.151C376.272 193.354 376.4 189.493 376.4 185.632C376.336 182.478 376.207 179.325 376.079 176.172Z" fill="#EB5D3A"></path><path d="M20.2712 201.012C23.4245 199.661 26.7065 198.309 30.1816 196.765C34.4932 194.899 38.9336 192.711 43.4383 190.265C47.943 187.82 52.3833 185.181 56.6306 182.414C60.9423 179.647 64.9322 176.815 68.6647 173.855C70.4665 172.439 72.1397 171.024 73.7485 169.672C73.8772 168.707 74.006 167.742 74.0703 166.776C72.4615 168.192 70.6596 169.672 68.7934 171.152C65.0609 174.048 61.0066 176.944 56.7594 179.711C52.4477 182.478 48.0717 185.053 43.567 187.562C39.0623 190.008 34.6219 192.196 30.3103 194.062C26.8352 195.542 23.5532 196.958 20.3999 198.309C17.2466 199.661 14.0933 200.755 10.94 201.72C7.78673 202.685 4.50472 203.393 1.02966 203.972C1.09402 204.873 1.22272 205.71 1.28708 206.611C4.56908 206.032 7.72237 205.324 10.747 204.423C13.9646 203.458 17.1179 202.299 20.2712 201.012Z" fill="#EB5D3A"></path><path d="M375.95 178.939C375.757 179.132 375.564 179.325 375.371 179.518C373.762 181.127 371.574 183.058 368.936 185.182C366.297 187.305 363.401 189.558 360.184 191.81C357.03 194.127 353.62 196.379 350.016 198.696C346.412 201.012 342.873 203.072 339.398 204.938C336.63 206.418 333.413 208.091 329.745 209.957C326.077 211.759 322.215 213.497 318.225 215.041C314.171 216.586 310.053 217.937 305.805 218.967C301.558 219.996 297.568 220.511 293.836 220.511C290.489 220.511 287.4 220.19 284.698 219.546C281.93 218.902 279.485 217.744 277.168 216.007C274.916 214.269 272.921 211.888 271.183 208.863C269.446 205.839 267.966 201.978 266.679 197.151C266.1 195.156 265.585 192.968 265.134 190.716C264.684 188.399 264.298 186.147 263.847 183.894C263.397 181.642 263.011 179.454 262.625 177.33C262.238 175.207 261.788 173.341 261.273 171.796C260.758 170.187 260.179 168.9 259.536 167.999C258.892 167.034 258.184 166.583 257.412 166.583C256.189 166.583 254.387 167.291 252.135 168.643C249.883 169.994 247.244 172.054 244.22 174.628C241.195 177.266 237.849 180.355 234.245 184.023C230.641 187.691 226.844 191.746 222.919 196.25C215.132 205.324 208.504 212.21 203.162 216.908C197.757 221.605 192.866 223.986 188.426 223.986C181.797 223.986 177.292 221.927 174.976 217.873C172.852 213.754 171.565 206.804 171.05 197.022C170.793 187.563 169.699 180.226 167.961 175.078C166.159 169.93 163.907 167.42 161.075 167.42C159.338 167.42 156.828 168.45 153.482 170.509C150.135 172.568 146.403 175.336 142.22 178.939C138.037 182.543 133.468 186.726 128.577 191.617C123.686 196.508 118.796 201.785 113.84 207.512C112.489 208.992 110.945 210.73 109.207 212.725C107.469 214.655 105.732 216.65 103.93 218.645C102.128 220.64 100.391 222.506 98.7175 224.244C97.0443 225.981 95.5642 227.461 94.3415 228.555C91.5743 231.194 88.1636 232.545 84.238 232.545C76.9018 232.545 72.1397 230.1 69.823 225.209C69.2438 223.922 68.7933 222.957 68.4716 222.12C68.1498 221.348 67.8924 220.576 67.6993 219.739C67.5063 218.967 67.3776 218.066 67.3132 217.165C67.2488 216.2 67.2489 214.977 67.2489 213.497C67.2489 211.631 67.3132 209.893 67.4419 208.22C67.5063 207.641 67.5706 207.062 67.635 206.547C67.8924 204.423 68.2141 202.299 68.6003 200.176C68.9864 198.052 69.4368 195.735 70.016 193.29C70.5952 190.845 71.1744 187.949 71.7536 184.731C72.204 182.028 72.6545 179.132 73.0406 176.043C73.298 173.855 73.5554 171.667 73.8129 169.544C73.7485 169.608 73.6841 169.672 73.6198 169.737C72.011 171.153 70.3378 172.504 68.5359 173.92C64.8034 176.816 60.7492 179.712 56.5019 182.479C52.1902 185.246 47.8142 187.82 43.3095 190.33C38.8048 192.775 34.3645 194.963 30.0528 196.829C26.5778 198.31 23.2958 199.725 20.1425 201.077C16.9892 202.428 13.8359 203.522 10.6826 204.487C7.65799 205.388 4.50469 206.096 1.22269 206.675C1.09398 206.675 0.965276 206.74 0.772217 206.74C9.97469 302.047 90.2872 376.503 187.975 376.503C288.881 376.503 371.252 297.027 375.821 197.216C375.95 194.32 376.014 191.359 376.014 188.399C376.143 185.182 376.079 182.028 375.95 178.939Z" fill="white"></path><path d="M357.416 179.582C354.521 181.448 351.689 183.25 348.858 185.052C346.026 186.854 343.066 188.591 339.977 190.393C336.888 192.131 333.606 193.933 330.002 195.735C326.463 197.537 322.923 199.145 319.448 200.561C315.973 201.977 312.691 203.135 309.667 203.972C306.578 204.873 304.068 205.323 302.009 205.323C296.732 205.323 292.677 203.393 289.846 199.531C287.014 195.67 284.891 189.814 283.539 181.963C282.96 178.231 282.574 174.884 282.317 171.86C282.059 168.835 281.802 166.068 281.544 163.558C281.287 161.048 280.772 158.86 280.193 156.93C279.549 154.999 278.52 153.326 277.104 151.782C276.525 151.138 275.688 150.559 274.594 150.044C273.5 149.529 272.213 149.079 270.797 148.693C269.382 148.307 267.837 148.049 266.293 147.856C264.748 147.663 263.268 147.599 261.788 147.599C259.6 147.599 256.897 148.371 253.679 149.915C251.041 151.202 248.274 152.811 245.378 154.871C247.63 153.455 249.754 152.232 251.749 151.202C254.902 149.658 257.605 148.886 259.857 148.886C261.273 148.886 262.818 148.95 264.362 149.143C265.907 149.336 267.387 149.594 268.867 149.98C270.283 150.366 271.57 150.816 272.664 151.331C273.758 151.846 274.594 152.425 275.173 153.069C276.589 154.549 277.619 156.286 278.262 158.217C278.906 160.147 279.356 162.335 279.614 164.845C279.871 167.355 280.193 170.122 280.386 173.147C280.643 176.171 281.029 179.582 281.609 183.25C282.96 191.101 285.019 196.957 287.915 200.819C290.747 204.68 294.801 206.61 300.078 206.61C302.073 206.61 304.647 206.16 307.736 205.259C310.825 204.358 314.107 203.264 317.518 201.848C320.928 200.432 324.468 198.824 328.072 197.022C331.611 195.22 334.957 193.482 338.046 191.68C341.135 189.943 344.095 188.141 346.927 186.339C349.758 184.537 352.654 182.735 355.486 180.869C358.382 179.003 361.342 177.072 364.367 175.077C367.134 173.275 370.03 171.345 373.119 169.286C370.738 170.83 368.485 172.375 366.297 173.79C363.273 175.785 360.312 177.716 357.416 179.582Z" fill="#EB5D3A"></path><path d="M76.1293 151.975C76.5154 151.717 76.8372 151.524 77.2233 151.331C77.352 151.203 77.5451 151.074 77.7382 150.881C76.9016 151.396 76.1293 151.975 75.2284 152.554C75.4858 152.361 75.8076 152.168 76.1293 151.975Z" fill="#EB5D3A"></path><path d="M195.247 201.076C194.732 200.755 194.217 200.111 193.638 199.274C193.059 198.438 192.48 197.28 191.965 195.864C191.45 194.448 191 192.582 190.742 190.394C190.485 188.141 190.163 185.76 189.97 183.251C189.713 180.741 189.455 178.231 189.198 175.721C188.94 173.211 188.619 170.83 188.232 168.514C187.911 166.197 187.46 164.202 186.881 162.465C185.723 158.668 183.47 155.643 179.995 153.262C176.585 150.881 172.595 149.723 167.961 149.723C163.264 149.723 158.694 150.495 154.383 152.104C150.522 153.519 146.854 155.45 143.25 157.96C146.274 156.029 149.299 154.549 152.452 153.391C156.764 151.846 161.333 151.01 166.031 151.01C170.664 151.01 174.654 152.168 178.065 154.549C181.475 156.93 183.792 159.955 184.95 163.752C185.53 165.489 185.98 167.548 186.302 169.801C186.624 172.117 186.945 174.499 187.267 177.008C187.525 179.518 187.846 182.028 188.039 184.538C188.297 187.047 188.554 189.428 188.812 191.681C189.069 193.869 189.52 195.735 190.034 197.151C190.549 198.567 191.128 199.725 191.708 200.562C192.287 201.398 192.802 201.977 193.316 202.363C193.767 202.685 194.153 202.878 194.475 202.878C195.376 202.878 196.534 202.299 198.014 201.141C197.371 201.462 196.856 201.591 196.405 201.591C196.084 201.591 195.697 201.398 195.247 201.076Z" fill="#EB5D3A"></path><path d="M90.7376 197.022C90.995 195.67 91.5099 193.869 92.089 191.681C92.7326 189.493 93.4404 187.112 94.2127 184.537C94.9849 181.963 95.7572 179.26 96.5937 176.429C97.4303 173.597 98.1382 170.895 98.8461 168.256C99.4896 165.618 100.069 163.172 100.519 160.92C100.97 158.668 101.163 156.801 101.163 155.257C101.163 153.841 100.97 152.425 100.648 151.074C100.326 149.722 99.747 148.564 98.9105 147.534C98.0739 146.505 97.0442 145.733 95.7572 145.153C94.4701 144.574 92.7969 144.252 90.802 144.252C89.6436 144.252 88.2922 144.574 86.7477 145.218C85.2033 145.861 83.7231 146.634 82.3717 147.599C81.9856 147.856 81.5351 148.114 81.2134 148.435C82.3717 147.728 83.5944 147.084 84.8815 146.569C86.426 145.926 87.7774 145.604 88.9357 145.604C90.9307 145.604 92.6039 145.926 93.8909 146.505C95.178 147.084 96.272 147.921 97.0442 148.886C97.8808 149.916 98.46 151.074 98.7817 152.425C99.1035 153.777 99.2966 155.192 99.2966 156.608C99.2966 158.088 99.1035 160.019 98.653 162.271C98.2026 164.524 97.6877 166.969 96.9799 169.608C96.3363 172.246 95.5641 174.949 94.7275 177.78C93.8909 180.612 93.1187 183.315 92.3464 185.889C91.5742 188.463 90.8663 190.844 90.2228 193.032C89.5793 195.22 89.1288 196.958 88.8714 198.373C88.0348 201.848 87.4556 204.551 87.1339 206.61C86.8764 208.67 86.6834 210.279 86.6834 211.566C87.2626 211.18 87.9061 210.729 88.614 210.214C88.614 208.992 88.7427 207.383 89.0644 205.388C89.3219 203.264 89.901 200.497 90.7376 197.022Z" fill="#EB5D3A"></path><path d="M21.8799 186.017C26.8994 183.765 32.0476 181.191 37.3889 178.166C42.7302 175.142 48.2646 171.86 53.9277 168.256C54.6999 167.741 55.5365 167.226 56.3087 166.647C56.18 166.776 55.9869 166.84 55.8582 166.969C50.1952 170.573 44.6608 173.855 39.3195 176.879C33.9782 179.904 28.83 182.542 23.8105 184.73C18.7909 186.983 14.0288 188.72 9.5241 189.943C6.30645 190.844 3.15315 191.423 0.064209 191.68C0.064209 190.586 0.064209 191.552 0.064209 192.646C3.0888 192.388 4.31151 192.131 7.52916 191.23C12.0982 190.007 16.8603 188.27 21.8799 186.017Z" fill="#EB5D3A"></path><path d="M23.8106 184.73C28.8301 182.478 33.9784 179.904 39.3197 176.879C44.661 173.854 50.1953 170.572 55.8584 166.969C55.9871 166.84 56.1802 166.776 56.3089 166.647C58.3682 165.295 60.6849 163.687 63.1303 161.756C65.7687 159.632 68.3429 157.637 70.917 155.707C72.3971 154.549 73.8129 153.519 75.2286 152.554C76.0652 151.974 76.9018 151.395 77.7384 150.88C77.8671 150.816 77.9958 150.752 78.0602 150.687C78.4463 150.43 78.7681 150.237 79.1542 150.044C79.7977 149.465 80.4412 148.95 81.1491 148.435C81.5352 148.178 81.9213 147.856 82.3075 147.598C83.7232 146.697 85.139 145.925 86.6835 145.217C88.2279 144.574 89.5794 144.252 90.7377 144.252C92.7326 144.252 94.4058 144.574 95.6929 145.153C96.98 145.732 98.074 146.569 98.8462 147.534C99.6828 148.564 100.262 149.722 100.584 151.073C100.905 152.425 101.099 153.841 101.099 155.256C101.099 156.737 100.905 158.667 100.455 160.919C100.005 163.172 99.4897 165.617 98.7818 168.256C98.1383 170.894 97.3661 173.597 96.5295 176.429C95.6929 179.26 94.9207 181.963 94.1484 184.537C93.3762 187.111 92.6683 189.492 92.0248 191.68C91.3812 193.868 90.9308 195.606 90.6734 197.022C89.8368 200.497 89.2576 203.199 88.9358 205.259C88.6784 207.254 88.4854 208.862 88.4854 210.085V210.15C89.7081 209.313 91.3169 208.09 93.2475 206.481C95.1781 204.873 97.3017 202.942 99.6184 200.754C101.935 198.566 104.381 196.121 106.89 193.482C109.464 190.844 112.039 188.141 114.613 185.374C116.415 183.443 118.474 181.255 120.726 178.745C122.979 176.3 125.36 173.854 127.805 171.345C130.25 168.835 132.696 166.518 135.077 164.33C137.458 162.142 139.71 160.276 141.705 158.796C142.156 158.474 142.606 158.088 143.121 157.766C146.725 155.256 150.457 153.261 154.254 151.91C158.566 150.366 163.135 149.529 167.833 149.529C172.466 149.529 176.456 150.687 179.867 153.068C183.277 155.449 185.594 158.474 186.752 162.271C187.332 164.008 187.782 166.068 188.104 168.32C188.426 170.637 188.747 173.018 189.069 175.528C189.326 178.037 189.648 180.547 189.841 183.057C190.099 185.567 190.356 187.948 190.614 190.2C190.871 192.388 191.321 194.254 191.836 195.67C192.351 197.086 192.93 198.244 193.509 199.081C194.089 199.917 194.603 200.497 195.118 200.883C195.569 201.204 195.955 201.398 196.277 201.398C196.727 201.398 197.306 201.269 197.885 200.947C199.752 199.982 202.261 197.665 205.479 193.997C207.667 191.487 210.112 188.656 212.815 185.631C215.518 182.542 218.478 179.131 221.76 175.463C225.042 171.795 228.517 168.32 232.314 164.909C236.111 161.499 239.715 158.538 243.383 155.9C244.027 155.449 244.606 154.999 245.249 154.613C248.145 152.618 250.977 150.945 253.551 149.658C256.704 148.113 259.407 147.341 261.659 147.341C263.075 147.341 264.619 147.405 266.164 147.598C267.708 147.791 269.189 148.049 270.669 148.435C272.084 148.821 273.371 149.272 274.465 149.786C275.559 150.301 276.396 150.88 276.975 151.524C278.391 153.004 279.421 154.742 280.064 156.672C280.708 158.603 281.158 160.791 281.416 163.301C281.673 165.81 281.995 168.577 282.188 171.602C282.445 174.627 282.831 178.037 283.411 181.705C284.762 189.557 286.821 195.413 289.717 199.274C292.549 203.135 296.603 205.066 301.88 205.066C303.875 205.066 306.449 204.615 309.538 203.714C312.627 202.813 315.909 201.719 319.32 200.303C322.73 198.888 326.27 197.279 329.873 195.477C333.413 193.675 336.759 191.938 339.848 190.136C342.937 188.398 345.897 186.596 348.729 184.794C351.56 182.993 354.456 181.191 357.288 179.324C360.184 177.458 363.144 175.528 366.168 173.533C368.356 172.117 370.609 170.572 372.99 169.028C373.633 168.577 374.277 168.191 374.92 167.741C364.881 73.7212 285.084 0.294434 188.104 0.294434C148.977 0.294434 112.618 12.2641 82.5005 32.7283C32.6913 66.578 0 123.659 0 188.334C0 189.428 0 190.586 0.064353 191.68C3.08894 191.423 6.24224 190.844 9.52424 189.943C14.029 188.72 18.7911 186.982 23.8106 184.73Z" fill="white"></path><path d="M376.079 176.172C375.886 176.365 375.692 176.558 375.499 176.751C373.891 178.36 371.703 180.29 369.064 182.414C366.426 184.538 363.53 186.79 360.312 189.042C357.159 191.359 353.748 193.611 350.144 195.928C346.541 198.245 343.001 200.304 339.526 202.17C336.759 203.65 333.541 205.324 329.873 207.19C326.205 208.992 322.344 210.729 318.354 212.274C314.3 213.818 310.181 215.17 305.934 216.199C301.687 217.229 297.697 217.744 293.964 217.744C290.618 217.744 287.529 217.422 284.826 216.778C285.277 216.907 276.396 212.531 277.297 213.239C275.044 211.501 273.049 209.12 271.312 206.096C269.574 203.071 268.094 199.21 266.807 194.384C266.228 192.389 265.713 190.201 265.263 187.948C264.812 185.632 264.426 183.379 263.976 181.127C263.525 178.875 263.139 176.687 262.753 174.563C262.367 172.439 261.916 170.573 261.402 169.029C260.887 167.42 260.308 166.133 259.664 165.232C259.021 164.266 258.313 163.816 257.54 163.816C256.318 163.816 254.516 164.524 252.263 165.875C250.011 167.227 247.373 169.286 244.348 171.86C241.323 174.499 237.977 177.587 234.373 181.256C230.77 184.924 226.973 188.978 223.047 193.483C215.261 202.556 208.632 209.442 203.291 214.14C197.885 218.838 192.994 221.219 188.554 221.219C181.926 221.219 177.421 219.159 175.104 215.105C172.981 210.987 171.694 204.037 171.179 194.255C170.921 184.795 169.827 177.459 168.09 172.311C166.288 167.162 164.036 164.652 161.204 164.652C159.466 164.652 156.957 165.682 153.61 167.741C150.264 169.801 146.532 172.568 142.349 176.172C138.166 179.775 133.597 183.958 128.706 188.849C123.815 193.74 118.924 199.017 113.969 204.744C112.618 206.225 111.073 207.962 109.336 209.957C107.598 211.888 105.86 213.883 104.059 215.877C102.257 217.872 100.519 219.739 98.846 221.476C97.1728 223.214 95.6927 224.694 94.47 225.788C91.7028 228.426 88.2921 229.778 84.3665 229.778C77.0303 229.778 72.2682 227.332 69.9515 222.441C69.3723 221.154 68.9218 220.189 68.6001 219.353C68.2783 218.58 68.0209 217.808 67.8278 216.971C67.6348 216.199 67.5061 215.298 67.4417 214.397C67.3774 213.432 67.3774 212.209 67.3774 210.729C67.3774 209.828 67.3774 208.992 67.4417 208.155C67.313 209.764 67.2487 211.566 67.2487 213.432C67.2487 214.912 67.2487 216.135 67.313 217.1C67.3774 218.065 67.5061 218.902 67.6991 219.674C67.8922 220.447 68.1496 221.219 68.4714 222.055C68.7931 222.828 69.2436 223.857 69.8228 225.144C72.1395 230.035 76.966 232.481 84.2378 232.481C88.1634 232.481 91.5741 231.129 94.3413 228.491C95.564 227.332 97.0441 225.917 98.7173 224.179C100.39 222.441 102.128 220.575 103.93 218.58C105.732 216.585 107.469 214.655 109.207 212.66C110.944 210.729 112.489 208.992 113.84 207.447C118.731 201.72 123.622 196.443 128.577 191.552C133.468 186.661 138.037 182.478 142.22 178.875C146.403 175.271 150.135 172.504 153.482 170.444C156.828 168.385 159.338 167.355 161.075 167.355C163.842 167.355 166.159 169.929 167.961 175.013C169.763 180.162 170.793 187.433 171.05 196.958C171.5 206.675 172.852 213.625 174.976 217.808C177.292 221.862 181.733 223.922 188.425 223.922C192.866 223.922 197.757 221.541 203.162 216.843C208.568 212.145 215.132 205.259 222.919 196.185C226.844 191.681 230.641 187.562 234.245 183.958C237.848 180.29 241.195 177.201 244.219 174.563C247.244 171.924 249.882 169.929 252.135 168.578C254.387 167.227 256.125 166.519 257.412 166.519C258.184 166.519 258.892 166.969 259.535 167.935C260.179 168.9 260.758 170.123 261.273 171.731C261.788 173.34 262.238 175.206 262.624 177.266C263.01 179.389 263.397 181.577 263.847 183.83C264.297 186.082 264.684 188.399 265.134 190.651C265.585 192.968 266.099 195.091 266.679 197.086C267.901 201.849 269.446 205.774 271.183 208.799C272.921 211.823 274.916 214.204 277.168 215.942C279.42 217.679 281.93 218.838 284.697 219.481C287.465 220.125 290.489 220.447 293.835 220.447C297.568 220.447 301.558 219.932 305.805 218.902C310.052 217.872 314.171 216.585 318.225 214.977C322.28 213.432 326.141 211.695 329.744 209.893C333.413 208.091 336.63 206.418 339.397 204.873C342.872 203.007 346.412 200.883 350.016 198.631C353.619 196.314 357.03 194.062 360.183 191.745C363.337 189.428 366.297 187.24 368.935 185.117C371.574 182.993 373.698 181.127 375.371 179.454C375.564 179.261 375.757 179.068 375.95 178.875C376.079 182.028 376.207 185.181 376.207 188.334C376.207 191.295 376.143 194.255 376.014 197.151C376.272 193.354 376.4 189.493 376.4 185.632C376.336 182.478 376.207 179.325 376.079 176.172Z" fill="#EB5D3A"></path><path d="M20.2712 201.012C23.4245 199.661 26.7065 198.309 30.1816 196.765C34.4932 194.899 38.9336 192.711 43.4383 190.265C47.943 187.82 52.3833 185.181 56.6306 182.414C60.9423 179.647 64.9322 176.815 68.6647 173.855C70.4665 172.439 72.1397 171.024 73.7485 169.672C73.8772 168.707 74.006 167.742 74.0703 166.776C72.4615 168.192 70.6596 169.672 68.7934 171.152C65.0609 174.048 61.0066 176.944 56.7594 179.711C52.4477 182.478 48.0717 185.053 43.567 187.562C39.0623 190.008 34.6219 192.196 30.3103 194.062C26.8352 195.542 23.5532 196.958 20.3999 198.309C17.2466 199.661 14.0933 200.755 10.94 201.72C7.78673 202.685 4.50472 203.393 1.02966 203.972C1.09402 204.873 1.22272 205.71 1.28708 206.611C4.56908 206.032 7.72237 205.324 10.747 204.423C13.9646 203.458 17.1179 202.299 20.2712 201.012Z" fill="#EB5D3A"></path><path d="M375.95 178.939C375.757 179.132 375.564 179.325 375.371 179.518C373.762 181.127 371.574 183.058 368.936 185.182C366.297 187.305 363.401 189.558 360.184 191.81C357.03 194.127 353.62 196.379 350.016 198.696C346.412 201.012 342.873 203.072 339.398 204.938C336.63 206.418 333.413 208.091 329.745 209.957C326.077 211.759 322.215 213.497 318.225 215.041C314.171 216.586 310.053 217.937 305.805 218.967C301.558 219.996 297.568 220.511 293.836 220.511C290.489 220.511 287.4 220.19 284.698 219.546C281.93 218.902 279.485 217.744 277.168 216.007C274.916 214.269 272.921 211.888 271.183 208.863C269.446 205.839 267.966 201.978 266.679 197.151C266.1 195.156 265.585 192.968 265.134 190.716C264.684 188.399 264.298 186.147 263.847 183.894C263.397 181.642 263.011 179.454 262.625 177.33C262.238 175.207 261.788 173.341 261.273 171.796C260.758 170.187 260.179 168.9 259.536 167.999C258.892 167.034 258.184 166.583 257.412 166.583C256.189 166.583 254.387 167.291 252.135 168.643C249.883 169.994 247.244 172.054 244.22 174.628C241.195 177.266 237.849 180.355 234.245 184.023C230.641 187.691 226.844 191.746 222.919 196.25C215.132 205.324 208.504 212.21 203.162 216.908C197.757 221.605 192.866 223.986 188.426 223.986C181.797 223.986 177.292 221.927 174.976 217.873C172.852 213.754 171.565 206.804 171.05 197.022C170.793 187.563 169.699 180.226 167.961 175.078C166.159 169.93 163.907 167.42 161.075 167.42C159.338 167.42 156.828 168.45 153.482 170.509C150.135 172.568 146.403 175.336 142.22 178.939C138.037 182.543 133.468 186.726 128.577 191.617C123.686 196.508 118.796 201.785 113.84 207.512C112.489 208.992 110.945 210.73 109.207 212.725C107.469 214.655 105.732 216.65 103.93 218.645C102.128 220.64 100.391 222.506 98.7175 224.244C97.0443 225.981 95.5642 227.461 94.3415 228.555C91.5743 231.194 88.1636 232.545 84.238 232.545C76.9018 232.545 72.1397 230.1 69.823 225.209C69.2438 223.922 68.7933 222.957 68.4716 222.12C68.1498 221.348 67.8924 220.576 67.6993 219.739C67.5063 218.967 67.3776 218.066 67.3132 217.165C67.2488 216.2 67.2489 214.977 67.2489 213.497C67.2489 211.631 67.3132 209.893 67.4419 208.22C67.5063 207.641 67.5706 207.062 67.635 206.547C67.8924 204.423 68.2141 202.299 68.6003 200.176C68.9864 198.052 69.4368 195.735 70.016 193.29C70.5952 190.845 71.1744 187.949 71.7536 184.731C72.204 182.028 72.6545 179.132 73.0406 176.043C73.298 173.855 73.5554 171.667 73.8129 169.544C73.7485 169.608 73.6841 169.672 73.6198 169.737C72.011 171.153 70.3378 172.504 68.5359 173.92C64.8034 176.816 60.7492 179.712 56.5019 182.479C52.1902 185.246 47.8142 187.82 43.3095 190.33C38.8048 192.775 34.3645 194.963 30.0528 196.829C26.5778 198.31 23.2958 199.725 20.1425 201.077C16.9892 202.428 13.8359 203.522 10.6826 204.487C7.65799 205.388 4.50469 206.096 1.22269 206.675C1.09398 206.675 0.965276 206.74 0.772217 206.74C9.97469 302.047 90.2872 376.503 187.975 376.503C288.881 376.503 371.252 297.027 375.821 197.216C375.95 194.32 376.014 191.359 376.014 188.399C376.143 185.182 376.079 182.028 375.95 178.939Z" fill="white"></path><path d="M357.416 179.582C354.521 181.448 351.689 183.25 348.858 185.052C346.026 186.854 343.066 188.591 339.977 190.393C336.888 192.131 333.606 193.933 330.002 195.735C326.463 197.537 322.923 199.145 319.448 200.561C315.973 201.977 312.691 203.135 309.667 203.972C306.578 204.873 304.068 205.323 302.009 205.323C296.732 205.323 292.677 203.393 289.846 199.531C287.014 195.67 284.891 189.814 283.539 181.963C282.96 178.231 282.574 174.884 282.317 171.86C282.059 168.835 281.802 166.068 281.544 163.558C281.287 161.048 280.772 158.86 280.193 156.93C279.549 154.999 278.52 153.326 277.104 151.782C276.525 151.138 275.688 150.559 274.594 150.044C273.5 149.529 272.213 149.079 270.797 148.693C269.382 148.307 267.837 148.049 266.293 147.856C264.748 147.663 263.268 147.599 261.788 147.599C259.6 147.599 256.897 148.371 253.679 149.915C251.041 151.202 248.274 152.811 245.378 154.871C247.63 153.455 249.754 152.232 251.749 151.202C254.902 149.658 257.605 148.886 259.857 148.886C261.273 148.886 262.818 148.95 264.362 149.143C265.907 149.336 267.387 149.594 268.867 149.98C270.283 150.366 271.57 150.816 272.664 151.331C273.758 151.846 274.594 152.425 275.173 153.069C276.589 154.549 277.619 156.286 278.262 158.217C278.906 160.147 279.356 162.335 279.614 164.845C279.871 167.355 280.193 170.122 280.386 173.147C280.643 176.171 281.029 179.582 281.609 183.25C282.96 191.101 285.019 196.957 287.915 200.819C290.747 204.68 294.801 206.61 300.078 206.61C302.073 206.61 304.647 206.16 307.736 205.259C310.825 204.358 314.107 203.264 317.518 201.848C320.928 200.432 324.468 198.824 328.072 197.022C331.611 195.22 334.957 193.482 338.046 191.68C341.135 189.943 344.095 188.141 346.927 186.339C349.758 184.537 352.654 182.735 355.486 180.869C358.382 179.003 361.342 177.072 364.367 175.077C367.134 173.275 370.03 171.345 373.119 169.286C370.738 170.83 368.485 172.375 366.297 173.79C363.273 175.785 360.312 177.716 357.416 179.582Z" fill="#EB5D3A"></path><path d="M76.1293 151.975C76.5154 151.717 76.8372 151.524 77.2233 151.331C77.352 151.203 77.5451 151.074 77.7382 150.881C76.9016 151.396 76.1293 151.975 75.2284 152.554C75.4858 152.361 75.8076 152.168 76.1293 151.975Z" fill="#EB5D3A"></path><path d="M195.247 201.076C194.732 200.755 194.217 200.111 193.638 199.274C193.059 198.438 192.48 197.28 191.965 195.864C191.45 194.448 191 192.582 190.742 190.394C190.485 188.141 190.163 185.76 189.97 183.251C189.713 180.741 189.455 178.231 189.198 175.721C188.94 173.211 188.619 170.83 188.232 168.514C187.911 166.197 187.46 164.202 186.881 162.465C185.723 158.668 183.47 155.643 179.995 153.262C176.585 150.881 172.595 149.723 167.961 149.723C163.264 149.723 158.694 150.495 154.383 152.104C150.522 153.519 146.854 155.45 143.25 157.96C146.274 156.029 149.299 154.549 152.452 153.391C156.764 151.846 161.333 151.01 166.031 151.01C170.664 151.01 174.654 152.168 178.065 154.549C181.475 156.93 183.792 159.955 184.95 163.752C185.53 165.489 185.98 167.548 186.302 169.801C186.624 172.117 186.945 174.499 187.267 177.008C187.525 179.518 187.846 182.028 188.039 184.538C188.297 187.047 188.554 189.428 188.812 191.681C189.069 193.869 189.52 195.735 190.034 197.151C190.549 198.567 191.128 199.725 191.708 200.562C192.287 201.398 192.802 201.977 193.316 202.363C193.767 202.685 194.153 202.878 194.475 202.878C195.376 202.878 196.534 202.299 198.014 201.141C197.371 201.462 196.856 201.591 196.405 201.591C196.084 201.591 195.697 201.398 195.247 201.076Z" fill="#EB5D3A"></path><path d="M90.7376 197.022C90.995 195.67 91.5099 193.869 92.089 191.681C92.7326 189.493 93.4404 187.112 94.2127 184.537C94.9849 181.963 95.7572 179.26 96.5937 176.429C97.4303 173.597 98.1382 170.895 98.8461 168.256C99.4896 165.618 100.069 163.172 100.519 160.92C100.97 158.668 101.163 156.801 101.163 155.257C101.163 153.841 100.97 152.425 100.648 151.074C100.326 149.722 99.747 148.564 98.9105 147.534C98.0739 146.505 97.0442 145.733 95.7572 145.153C94.4701 144.574 92.7969 144.252 90.802 144.252C89.6436 144.252 88.2922 144.574 86.7477 145.218C85.2033 145.861 83.7231 146.634 82.3717 147.599C81.9856 147.856 81.5351 148.114 81.2134 148.435C82.3717 147.728 83.5944 147.084 84.8815 146.569C86.426 145.926 87.7774 145.604 88.9357 145.604C90.9307 145.604 92.6039 145.926 93.8909 146.505C95.178 147.084 96.272 147.921 97.0442 148.886C97.8808 149.916 98.46 151.074 98.7817 152.425C99.1035 153.777 99.2966 155.192 99.2966 156.608C99.2966 158.088 99.1035 160.019 98.653 162.271C98.2026 164.524 97.6877 166.969 96.9799 169.608C96.3363 172.246 95.5641 174.949 94.7275 177.78C93.8909 180.612 93.1187 183.315 92.3464 185.889C91.5742 188.463 90.8663 190.844 90.2228 193.032C89.5793 195.22 89.1288 196.958 88.8714 198.373C88.0348 201.848 87.4556 204.551 87.1339 206.61C86.8764 208.67 86.6834 210.279 86.6834 211.566C87.2626 211.18 87.9061 210.729 88.614 210.214C88.614 208.992 88.7427 207.383 89.0644 205.388C89.3219 203.264 89.901 200.497 90.7376 197.022Z" fill="#EB5D3A"></path><path d="M21.8799 186.017C26.8994 183.765 32.0476 181.191 37.3889 178.166C42.7302 175.142 48.2646 171.86 53.9277 168.256C54.6999 167.741 55.5365 167.226 56.3087 166.647C56.18 166.776 55.9869 166.84 55.8582 166.969C50.1952 170.573 44.6608 173.855 39.3195 176.879C33.9782 179.904 28.83 182.542 23.8105 184.73C18.7909 186.983 14.0288 188.72 9.5241 189.943C6.30645 190.844 3.15315 191.423 0.064209 191.68C0.064209 190.586 0.064209 191.552 0.064209 192.646C3.0888 192.388 4.31151 192.131 7.52916 191.23C12.0982 190.007 16.8603 188.27 21.8799 186.017Z" fill="#EB5D3A"></path><path d="M23.8106 184.73C28.8301 182.478 33.9784 179.904 39.3197 176.879C44.661 173.854 50.1953 170.572 55.8584 166.969C55.9871 166.84 56.1802 166.776 56.3089 166.647C58.3682 165.295 60.6849 163.687 63.1303 161.756C65.7687 159.632 68.3429 157.637 70.917 155.707C72.3971 154.549 73.8129 153.519 75.2286 152.554C76.0652 151.974 76.9018 151.395 77.7384 150.88C77.8671 150.816 77.9958 150.752 78.0602 150.687C78.4463 150.43 78.7681 150.237 79.1542 150.044C79.7977 149.465 80.4412 148.95 81.1491 148.435C81.5352 148.178 81.9213 147.856 82.3075 147.598C83.7232 146.697 85.139 145.925 86.6835 145.217C88.2279 144.574 89.5794 144.252 90.7377 144.252C92.7326 144.252 94.4058 144.574 95.6929 145.153C96.98 145.732 98.074 146.569 98.8462 147.534C99.6828 148.564 100.262 149.722 100.584 151.073C100.905 152.425 101.099 153.841 101.099 155.256C101.099 156.737 100.905 158.667 100.455 160.919C100.005 163.172 99.4897 165.617 98.7818 168.256C98.1383 170.894 97.3661 173.597 96.5295 176.429C95.6929 179.26 94.9207 181.963 94.1484 184.537C93.3762 187.111 92.6683 189.492 92.0248 191.68C91.3812 193.868 90.9308 195.606 90.6734 197.022C89.8368 200.497 89.2576 203.199 88.9358 205.259C88.6784 207.254 88.4854 208.862 88.4854 210.085V210.15C89.7081 209.313 91.3169 208.09 93.2475 206.481C95.1781 204.873 97.3017 202.942 99.6184 200.754C101.935 198.566 104.381 196.121 106.89 193.482C109.464 190.844 112.039 188.141 114.613 185.374C116.415 183.443 118.474 181.255 120.726 178.745C122.979 176.3 125.36 173.854 127.805 171.345C130.25 168.835 132.696 166.518 135.077 164.33C137.458 162.142 139.71 160.276 141.705 158.796C142.156 158.474 142.606 158.088 143.121 157.766C146.725 155.256 150.457 153.261 154.254 151.91C158.566 150.366 163.135 149.529 167.833 149.529C172.466 149.529 176.456 150.687 179.867 153.068C183.277 155.449 185.594 158.474 186.752 162.271C187.332 164.008 187.782 166.068 188.104 168.32C188.426 170.637 188.747 173.018 189.069 175.528C189.326 178.037 189.648 180.547 189.841 183.057C190.099 185.567 190.356 187.948 190.614 190.2C190.871 192.388 191.321 194.254 191.836 195.67C192.351 197.086 192.93 198.244 193.509 199.081C194.089 199.917 194.603 200.497 195.118 200.883C195.569 201.204 195.955 201.398 196.277 201.398C196.727 201.398 197.306 201.269 197.885 200.947C199.752 199.982 202.261 197.665 205.479 193.997C207.667 191.487 210.112 188.656 212.815 185.631C215.518 182.542 218.478 179.131 221.76 175.463C225.042 171.795 228.517 168.32 232.314 164.909C236.111 161.499 239.715 158.538 243.383 155.9C244.027 155.449 244.606 154.999 245.249 154.613C248.145 152.618 250.977 150.945 253.551 149.658C256.704 148.113 259.407 147.341 261.659 147.341C263.075 147.341 264.619 147.405 266.164 147.598C267.708 147.791 269.189 148.049 270.669 148.435C272.084 148.821 273.371 149.272 274.465 149.786C275.559 150.301 276.396 150.88 276.975 151.524C278.391 153.004 279.421 154.742 280.064 156.672C280.708 158.603 281.158 160.791 281.416 163.301C281.673 165.81 281.995 168.577 282.188 171.602C282.445 174.627 282.831 178.037 283.411 181.705C284.762 189.557 286.821 195.413 289.717 199.274C292.549 203.135 296.603 205.066 301.88 205.066C303.875 205.066 306.449 204.615 309.538 203.714C312.627 202.813 315.909 201.719 319.32 200.303C322.73 198.888 326.27 197.279 329.873 195.477C333.413 193.675 336.759 191.938 339.848 190.136C342.937 188.398 345.897 186.596 348.729 184.794C351.56 182.993 354.456 181.191 357.288 179.324C360.184 177.458 363.144 175.528 366.168 173.533C368.356 172.117 370.609 170.572 372.99 169.028C373.633 168.577 374.277 168.191 374.92 167.741C364.881 73.7212 285.084 0.294434 188.104 0.294434C148.977 0.294434 112.618 12.2641 82.5005 32.7283C32.6913 66.578 0 123.659 0 188.334C0 189.428 0 190.586 0.064353 191.68C3.08894 191.423 6.24224 190.844 9.52424 189.943C14.029 188.72 18.7911 186.982 23.8106 184.73Z" fill="white"></path></svg>