<svg xmlns="http://www.w3.org/2000/svg" width="377" height="377" viewBox="0 0 377 377" fill="none"><path d="M376.079 175.877C375.886 176.07 375.693 176.263 375.5 176.456C373.891 178.065 371.703 179.996 369.064 182.119C366.426 184.243 363.53 186.495 360.312 188.748C357.159 191.065 353.748 193.317 350.144 195.634C346.541 197.95 343.001 200.01 339.526 201.876C336.759 203.356 333.541 205.029 329.873 206.895C326.205 208.697 322.344 210.435 318.354 211.979C314.3 213.524 310.181 214.875 305.934 215.905C301.687 216.934 297.697 217.449 293.964 217.449C290.618 217.449 287.529 217.128 284.826 216.484C285.277 216.613 276.396 212.237 277.297 212.945C275.045 211.207 273.05 208.826 271.312 205.801C269.575 202.777 268.094 198.916 266.807 194.089C266.228 192.094 265.713 189.906 265.263 187.654C264.812 185.337 264.426 183.085 263.976 180.832C263.525 178.58 263.139 176.392 262.753 174.268C262.367 172.145 261.917 170.279 261.402 168.734C260.887 167.125 260.308 165.838 259.664 164.937C259.021 163.972 258.313 163.521 257.541 163.521C256.318 163.521 254.516 164.229 252.264 165.581C250.011 166.932 247.373 168.991 244.348 171.566C241.324 174.204 237.977 177.293 234.373 180.961C230.77 184.629 226.973 188.684 223.047 193.188C215.261 202.262 208.632 209.148 203.291 213.846C197.885 218.543 192.994 220.924 188.554 220.924C181.926 220.924 177.421 218.865 175.104 214.811C172.981 210.692 171.694 203.742 171.179 193.96C170.921 184.501 169.827 177.164 168.09 172.016C166.288 166.868 164.036 164.358 161.204 164.358C159.467 164.358 156.957 165.388 153.61 167.447C150.264 169.506 146.532 172.273 142.349 175.877C138.166 179.481 133.597 183.664 128.706 188.555C123.815 193.446 118.924 198.723 113.969 204.45C112.618 205.93 111.073 207.668 109.336 209.663C107.598 211.593 105.861 213.588 104.059 215.583C102.257 217.578 100.519 219.444 98.8461 221.182C97.1729 222.919 95.6928 224.399 94.4701 225.493C91.7029 228.132 88.2922 229.483 84.3667 229.483C77.0304 229.483 72.2683 227.038 69.9516 222.147C69.3724 220.86 68.922 219.895 68.6002 219.058C68.2784 218.286 68.021 217.514 67.828 216.677C67.6349 215.905 67.5062 215.004 67.4418 214.103C67.3775 213.138 67.3775 211.915 67.3775 210.435C67.3775 209.534 67.3775 208.697 67.4418 207.861C67.3131 209.47 67.2488 211.271 67.2488 213.138C67.2488 214.618 67.2488 215.84 67.3131 216.806C67.3775 217.771 67.5062 218.608 67.6992 219.38C67.8923 220.152 68.1497 220.924 68.4715 221.761C68.7933 222.533 69.2437 223.563 69.8229 224.85C72.1396 229.741 76.9661 232.186 84.238 232.186C88.1635 232.186 91.5742 230.835 94.3414 228.196C95.5641 227.038 97.0442 225.622 98.7174 223.885C100.391 222.147 102.128 220.281 103.93 218.286C105.732 216.291 107.469 214.36 109.207 212.365C110.944 210.435 112.489 208.697 113.84 207.153C118.731 201.425 123.622 196.148 128.577 191.258C133.468 186.367 138.037 182.184 142.22 178.58C146.403 174.976 150.135 172.209 153.482 170.15C156.828 168.091 159.338 167.061 161.075 167.061C163.843 167.061 166.159 169.635 167.961 174.719C169.763 179.867 170.793 187.139 171.05 196.663C171.501 206.381 172.852 213.331 174.976 217.514C177.292 221.568 181.733 223.627 188.425 223.627C192.866 223.627 197.757 221.246 203.162 216.548C208.568 211.851 215.132 204.965 222.919 195.891C226.844 191.386 230.641 187.268 234.245 183.664C237.849 179.996 241.195 176.907 244.219 174.268C247.244 171.63 249.883 169.635 252.135 168.284C254.387 166.932 256.125 166.224 257.412 166.224C258.184 166.224 258.892 166.675 259.535 167.64C260.179 168.605 260.758 169.828 261.273 171.437C261.788 173.046 262.238 174.912 262.624 176.971C263.011 179.095 263.397 181.283 263.847 183.535C264.298 185.788 264.684 188.104 265.134 190.357C265.585 192.673 266.099 194.797 266.679 196.792C267.901 201.554 269.446 205.48 271.183 208.504C272.921 211.529 274.916 213.91 277.168 215.647C279.421 217.385 281.93 218.543 284.697 219.187C287.465 219.83 290.489 220.152 293.836 220.152C297.568 220.152 301.558 219.637 305.805 218.608C310.053 217.578 314.171 216.291 318.225 214.682C322.28 213.138 326.141 211.4 329.745 209.598C333.413 207.796 336.63 206.123 339.398 204.579C342.873 202.712 346.412 200.589 350.016 198.336C353.62 196.02 357.03 193.767 360.184 191.451C363.337 189.134 366.297 186.946 368.936 184.822C371.574 182.699 373.698 180.832 375.371 179.159C375.564 178.966 375.757 178.773 375.95 178.58C376.079 181.733 376.207 184.887 376.207 188.04C376.207 191 376.143 193.96 376.014 196.856C376.272 193.059 376.4 189.198 376.4 185.337C376.336 182.184 376.207 179.031 376.079 175.877Z" fill="#EB5D3A"></path><path d="M20.2711 200.718C23.4244 199.366 26.7064 198.015 30.1814 196.47C34.4931 194.604 38.9335 192.416 43.4382 189.971C47.9429 187.525 52.3832 184.887 56.6305 182.12C60.9422 179.353 64.9321 176.521 68.6645 173.561C70.4664 172.145 72.1396 170.729 73.7484 169.378C73.8771 168.413 74.0058 167.447 74.0702 166.482C72.4614 167.898 70.6595 169.378 68.7932 170.858C65.0608 173.754 61.0065 176.65 56.7592 179.417C52.4476 182.184 48.0716 184.758 43.5669 187.268C39.0622 189.713 34.6218 191.901 30.3102 193.768C26.8351 195.248 23.5531 196.663 20.3998 198.015C17.2465 199.366 14.0932 200.46 10.9399 201.426C7.7866 202.391 4.5046 203.099 1.02954 203.678C1.09389 204.579 1.2226 205.415 1.28695 206.316C4.56896 205.737 7.72225 205.029 10.7468 204.128C13.9645 203.163 17.1178 202.005 20.2711 200.718Z" fill="#EB5D3A"></path><path d="M375.95 178.645C375.757 178.838 375.564 179.031 375.371 179.224C373.762 180.833 371.574 182.763 368.936 184.887C366.297 187.011 363.401 189.263 360.184 191.515C357.03 193.832 353.62 196.084 350.016 198.401C346.412 200.718 342.873 202.777 339.398 204.643C336.63 206.123 333.413 207.797 329.745 209.663C326.077 211.465 322.215 213.202 318.225 214.747C314.171 216.291 310.053 217.643 305.805 218.672C301.558 219.702 297.568 220.217 293.836 220.217C290.489 220.217 287.4 219.895 284.698 219.251C281.93 218.608 279.485 217.45 277.168 215.712C274.916 213.975 272.921 211.593 271.183 208.569C269.446 205.544 267.966 201.683 266.679 196.857C266.1 194.862 265.585 192.674 265.134 190.421C264.684 188.105 264.298 185.852 263.847 183.6C263.397 181.348 263.011 179.16 262.625 177.036C262.238 174.912 261.788 173.046 261.273 171.502C260.758 169.893 260.179 168.606 259.536 167.705C258.892 166.739 258.184 166.289 257.412 166.289C256.189 166.289 254.387 166.997 252.135 168.348C249.883 169.7 247.244 171.759 244.22 174.333C241.195 176.972 237.849 180.06 234.245 183.729C230.641 187.397 226.844 191.451 222.919 195.956C215.132 205.029 208.504 211.915 203.162 216.613C197.757 221.311 192.866 223.692 188.426 223.692C181.797 223.692 177.292 221.633 174.976 217.578C172.852 213.46 171.565 206.51 171.05 196.728C170.793 187.268 169.699 179.932 167.961 174.784C166.159 169.635 163.907 167.126 161.075 167.126C159.338 167.126 156.828 168.155 153.482 170.214C150.135 172.274 146.403 175.041 142.22 178.645C138.037 182.248 133.468 186.431 128.577 191.322C123.686 196.213 118.796 201.49 113.84 207.217C112.489 208.698 110.945 210.435 109.207 212.43C107.469 214.361 105.732 216.356 103.93 218.351C102.128 220.345 100.391 222.212 98.7175 223.949C97.0443 225.687 95.5642 227.167 94.3415 228.261C91.5743 230.899 88.1636 232.251 84.238 232.251C76.9018 232.251 72.1397 229.805 69.823 224.915C69.2438 223.627 68.7933 222.662 68.4716 221.826C68.1498 221.053 67.8924 220.281 67.6993 219.445C67.5063 218.672 67.3776 217.771 67.3132 216.87C67.2488 215.905 67.2489 214.682 67.2489 213.202C67.2489 211.336 67.3132 209.599 67.4419 207.925C67.5063 207.346 67.5706 206.767 67.635 206.252C67.8924 204.129 68.2141 202.005 68.6003 199.881C68.9864 197.758 69.4368 195.441 70.016 192.995C70.5952 190.55 71.1744 187.654 71.7536 184.436C72.204 181.734 72.6545 178.838 73.0406 175.749C73.298 173.561 73.5554 171.373 73.8129 169.249C73.7485 169.314 73.6841 169.378 73.6198 169.442C72.011 170.858 70.3378 172.209 68.5359 173.625C64.8034 176.521 60.7492 179.417 56.5019 182.184C52.1902 184.951 47.8142 187.525 43.3095 190.035C38.8048 192.481 34.3645 194.669 30.0528 196.535C26.5778 198.015 23.2958 199.431 20.1425 200.782C16.9892 202.134 13.8359 203.228 10.6826 204.193C7.65799 205.094 4.50469 205.802 1.22269 206.381C1.09398 206.381 0.965276 206.445 0.772217 206.445C9.97469 301.752 90.2872 376.208 187.975 376.208C288.881 376.208 371.252 296.732 375.821 196.921C375.95 194.025 376.014 191.065 376.014 188.105C376.143 184.887 376.079 181.734 375.95 178.645Z" fill="#2B2B2B"></path><path d="M357.416 179.288C354.521 181.154 351.689 182.956 348.858 184.758C346.026 186.56 343.066 188.297 339.977 190.099C336.888 191.837 333.606 193.638 330.002 195.44C326.463 197.242 322.923 198.851 319.448 200.267C315.973 201.683 312.691 202.841 309.667 203.678C306.578 204.578 304.068 205.029 302.009 205.029C296.732 205.029 292.677 203.098 289.846 199.237C287.014 195.376 284.891 189.52 283.539 181.669C282.96 177.936 282.574 174.59 282.317 171.565C282.059 168.541 281.802 165.774 281.544 163.264C281.287 160.754 280.772 158.566 280.193 156.636C279.549 154.705 278.52 153.032 277.104 151.487C276.525 150.844 275.688 150.265 274.594 149.75C273.5 149.235 272.213 148.784 270.797 148.398C269.382 148.012 267.837 147.755 266.293 147.562C264.748 147.369 263.268 147.304 261.788 147.304C259.6 147.304 256.897 148.077 253.679 149.621C251.041 150.908 248.274 152.517 245.378 154.576C247.63 153.16 249.754 151.938 251.749 150.908C254.902 149.364 257.605 148.591 259.857 148.591C261.273 148.591 262.818 148.656 264.362 148.849C265.907 149.042 267.387 149.299 268.867 149.685C270.283 150.072 271.57 150.522 272.664 151.037C273.758 151.552 274.594 152.131 275.173 152.774C276.589 154.254 277.619 155.992 278.262 157.923C278.906 159.853 279.356 162.041 279.614 164.551C279.871 167.061 280.193 169.828 280.386 172.852C280.643 175.877 281.029 179.288 281.609 182.956C282.96 190.807 285.019 196.663 287.915 200.524C290.747 204.385 294.801 206.316 300.078 206.316C302.073 206.316 304.647 205.866 307.736 204.965C310.825 204.064 314.107 202.97 317.518 201.554C320.928 200.138 324.468 198.529 328.072 196.727C331.611 194.926 334.957 193.188 338.046 191.386C341.135 189.649 344.095 187.847 346.927 186.045C349.758 184.243 352.654 182.441 355.486 180.575C358.382 178.709 361.342 176.778 364.367 174.783C367.134 172.981 370.03 171.051 373.119 168.991C370.738 170.536 368.485 172.08 366.297 173.496C363.273 175.491 360.312 177.422 357.416 179.288Z" fill="#EB5D3A"></path><path d="M76.1295 151.68C76.5156 151.423 76.8373 151.23 77.2235 151.037C77.3522 150.908 77.5452 150.779 77.7383 150.586C76.9017 151.101 76.1295 151.68 75.2285 152.259C75.4859 152.066 75.8077 151.873 76.1295 151.68Z" fill="#EB5D3A"></path><path d="M195.247 200.782C194.732 200.46 194.217 199.816 193.638 198.98C193.059 198.143 192.48 196.985 191.965 195.569C191.45 194.153 191 192.287 190.742 190.099C190.485 187.847 190.163 185.466 189.97 182.956C189.713 180.446 189.455 177.936 189.198 175.427C188.94 172.917 188.619 170.536 188.232 168.219C187.911 165.902 187.46 163.908 186.881 162.17C185.723 158.373 183.47 155.349 179.995 152.968C176.585 150.586 172.595 149.428 167.961 149.428C163.264 149.428 158.694 150.2 154.383 151.809C150.522 153.225 146.854 155.156 143.25 157.665C146.274 155.735 149.299 154.255 152.452 153.096C156.764 151.552 161.333 150.715 166.031 150.715C170.664 150.715 174.654 151.874 178.065 154.255C181.475 156.636 183.792 159.66 184.95 163.457C185.53 165.195 185.98 167.254 186.302 169.506C186.624 171.823 186.945 174.204 187.267 176.714C187.525 179.224 187.846 181.733 188.039 184.243C188.297 186.753 188.554 189.134 188.812 191.386C189.069 193.574 189.52 195.44 190.034 196.856C190.549 198.272 191.128 199.43 191.708 200.267C192.287 201.104 192.802 201.683 193.316 202.069C193.767 202.391 194.153 202.584 194.475 202.584C195.376 202.584 196.534 202.004 198.014 200.846C197.371 201.168 196.856 201.297 196.405 201.297C196.084 201.297 195.697 201.104 195.247 200.782Z" fill="#EB5D3A"></path><path d="M90.7376 196.727C90.995 195.376 91.5099 193.574 92.089 191.386C92.7326 189.198 93.4404 186.817 94.2127 184.243C94.9849 181.669 95.7572 178.966 96.5937 176.135C97.4303 173.303 98.1382 170.6 98.8461 167.962C99.4896 165.323 100.069 162.878 100.519 160.625C100.97 158.373 101.163 156.507 101.163 154.962C101.163 153.547 100.97 152.131 100.648 150.779C100.326 149.428 99.747 148.27 98.9105 147.24C98.0739 146.21 97.0442 145.438 95.7572 144.859C94.4701 144.28 92.7969 143.958 90.802 143.958C89.6436 143.958 88.2922 144.28 86.7477 144.923C85.2033 145.567 83.7231 146.339 82.3717 147.304C81.9856 147.562 81.5351 147.819 81.2134 148.141C82.3717 147.433 83.5944 146.79 84.8815 146.275C86.426 145.631 87.7774 145.309 88.9357 145.309C90.9307 145.309 92.6039 145.631 93.8909 146.21C95.178 146.79 96.272 147.626 97.0442 148.591C97.8808 149.621 98.46 150.779 98.7817 152.131C99.1035 153.482 99.2966 154.898 99.2966 156.314C99.2966 157.794 99.1035 159.724 98.653 161.977C98.2026 164.229 97.6877 166.675 96.9799 169.313C96.3363 171.952 95.5641 174.654 94.7275 177.486C93.8909 180.317 93.1187 183.02 92.3464 185.594C91.5742 188.169 90.8663 190.55 90.2228 192.738C89.5793 194.926 89.1288 196.663 88.8714 198.079C88.0348 201.554 87.4556 204.257 87.1339 206.316C86.8764 208.375 86.6834 209.984 86.6834 211.271C87.2626 210.885 87.9061 210.435 88.614 209.92C88.614 208.697 88.7427 207.088 89.0644 205.093C89.3219 202.97 89.901 200.203 90.7376 196.727Z" fill="#EB5D3A"></path><path d="M21.8799 185.723C26.8994 183.47 32.0476 180.896 37.3889 177.872C42.7302 174.847 48.2646 171.565 53.9277 167.961C54.6999 167.447 55.5365 166.932 56.3087 166.353C56.18 166.481 55.9869 166.546 55.8582 166.674C50.1952 170.278 44.6608 173.56 39.3195 176.585C33.9782 179.609 28.83 182.248 23.8105 184.436C18.7909 186.688 14.0288 188.426 9.5241 189.648C6.30645 190.549 3.15315 191.128 0.064209 191.386C0.064209 190.292 0.064209 191.257 0.064209 192.351C3.0888 192.094 4.31151 191.836 7.52916 190.935C12.0982 189.713 16.8603 187.975 21.8799 185.723Z" fill="#EB5D3A"></path><path d="M23.8106 184.436C28.8301 182.183 33.9784 179.609 39.3197 176.585C44.661 173.56 50.1953 170.278 55.8584 166.674C55.9871 166.546 56.1802 166.481 56.3089 166.352C58.3682 165.001 60.6849 163.392 63.1303 161.462C65.7687 159.338 68.3429 157.343 70.917 155.412C72.3971 154.254 73.8129 153.224 75.2286 152.259C76.0652 151.68 76.9018 151.101 77.7384 150.586C77.8671 150.522 77.9958 150.457 78.0602 150.393C78.4463 150.136 78.7681 149.942 79.1542 149.749C79.7977 149.17 80.4412 148.655 81.1491 148.141C81.5352 147.883 81.9213 147.561 82.3075 147.304C83.7232 146.403 85.139 145.631 86.6835 144.923C88.2279 144.279 89.5794 143.958 90.7377 143.958C92.7326 143.958 94.4058 144.279 95.6929 144.859C96.98 145.438 98.074 146.274 98.8462 147.24C99.6828 148.269 100.262 149.428 100.584 150.779C100.905 152.13 101.099 153.546 101.099 154.962C101.099 156.442 100.905 158.373 100.455 160.625C100.005 162.877 99.4897 165.323 98.7818 167.961C98.1383 170.6 97.3661 173.303 96.5295 176.134C95.6929 178.966 94.9207 181.668 94.1484 184.243C93.3762 186.817 92.6683 189.198 92.0248 191.386C91.3812 193.574 90.9308 195.311 90.6734 196.727C89.8368 200.202 89.2576 202.905 88.9358 204.964C88.6784 206.959 88.4854 208.568 88.4854 209.791V209.855C89.7081 209.018 91.3169 207.796 93.2475 206.187C95.1781 204.578 97.3017 202.648 99.6184 200.46C101.935 198.272 104.381 195.826 106.89 193.188C109.464 190.549 112.039 187.846 114.613 185.079C116.415 183.149 118.474 180.961 120.726 178.451C122.979 176.005 125.36 173.56 127.805 171.05C130.25 168.54 132.696 166.224 135.077 164.036C137.458 161.848 139.71 159.982 141.705 158.501C142.156 158.18 142.606 157.794 143.121 157.472C146.725 154.962 150.457 152.967 154.254 151.616C158.566 150.071 163.135 149.235 167.833 149.235C172.466 149.235 176.456 150.393 179.867 152.774C183.277 155.155 185.594 158.18 186.752 161.976C187.332 163.714 187.782 165.773 188.104 168.026C188.426 170.342 188.747 172.723 189.069 175.233C189.326 177.743 189.648 180.253 189.841 182.762C190.099 185.272 190.356 187.653 190.614 189.906C190.871 192.094 191.321 193.96 191.836 195.376C192.351 196.791 192.93 197.95 193.509 198.786C194.089 199.623 194.603 200.202 195.118 200.588C195.569 200.91 195.955 201.103 196.277 201.103C196.727 201.103 197.306 200.974 197.885 200.653C199.752 199.687 202.261 197.371 205.479 193.702C207.667 191.193 210.112 188.361 212.815 185.337C215.518 182.248 218.478 178.837 221.76 175.169C225.042 171.501 228.517 168.026 232.314 164.615C236.111 161.204 239.715 158.244 243.383 155.606C244.027 155.155 244.606 154.705 245.249 154.318C248.145 152.324 250.977 150.65 253.551 149.363C256.704 147.819 259.407 147.047 261.659 147.047C263.075 147.047 264.619 147.111 266.164 147.304C267.708 147.497 269.189 147.754 270.669 148.141C272.084 148.527 273.371 148.977 274.465 149.492C275.559 150.007 276.396 150.586 276.975 151.23C278.391 152.71 279.421 154.447 280.064 156.378C280.708 158.308 281.158 160.496 281.416 163.006C281.673 165.516 281.995 168.283 282.188 171.308C282.445 174.332 282.831 177.743 283.411 181.411C284.762 189.262 286.821 195.118 289.717 198.979C292.549 202.841 296.603 204.771 301.88 204.771C303.875 204.771 306.449 204.321 309.538 203.42C312.627 202.519 315.909 201.425 319.32 200.009C322.73 198.593 326.27 196.984 329.873 195.183C333.413 193.381 336.759 191.643 339.848 189.841C342.937 188.104 345.897 186.302 348.729 184.5C351.56 182.698 354.456 180.896 357.288 179.03C360.184 177.164 363.144 175.233 366.168 173.238C368.356 171.822 370.609 170.278 372.99 168.734C373.633 168.283 374.277 167.897 374.92 167.446C364.881 73.4268 285.084 0 188.104 0C148.977 0 112.618 11.9697 82.5005 32.4339C32.6913 66.2836 0 123.365 0 188.039C0 189.133 0 190.292 0.064353 191.386C3.08894 191.128 6.24224 190.549 9.52424 189.648C14.029 188.426 18.7911 186.688 23.8106 184.436Z" fill="#2B2B2B"></path><path d="M376.078 175.877C375.885 176.07 375.692 176.263 375.499 176.456C373.89 178.065 371.702 179.996 369.064 182.119C366.426 184.243 363.53 186.495 360.312 188.748C357.159 191.065 353.748 193.317 350.144 195.634C346.54 197.95 343.001 200.01 339.526 201.876C336.759 203.356 333.541 205.029 329.873 206.895C326.205 208.697 322.344 210.435 318.354 211.979C314.3 213.524 310.181 214.875 305.934 215.905C301.686 216.934 297.697 217.449 293.964 217.449C290.618 217.449 287.529 217.128 284.826 216.484C285.276 216.613 276.396 212.237 277.297 212.945C275.044 211.207 273.049 208.826 271.312 205.801C269.574 202.777 268.094 198.916 266.807 194.089C266.228 192.094 265.713 189.906 265.263 187.654C264.812 185.337 264.426 183.085 263.976 180.832C263.525 178.58 263.139 176.392 262.753 174.268C262.367 172.145 261.916 170.279 261.401 168.734C260.887 167.125 260.307 165.838 259.664 164.937C259.02 163.972 258.313 163.521 257.54 163.521C256.318 163.521 254.516 164.229 252.263 165.581C250.011 166.932 247.373 168.991 244.348 171.566C241.323 174.204 237.977 177.293 234.373 180.961C230.769 184.629 226.973 188.684 223.047 193.188C215.26 202.262 208.632 209.148 203.291 213.846C197.885 218.543 192.994 220.924 188.554 220.924C181.926 220.924 177.421 218.865 175.104 214.811C172.98 210.692 171.693 203.742 171.179 193.96C170.921 184.501 169.827 177.164 168.09 172.016C166.288 166.868 164.035 164.358 161.204 164.358C159.466 164.358 156.957 165.388 153.61 167.447C150.264 169.506 146.531 172.273 142.348 175.877C138.166 179.481 133.596 183.664 128.706 188.555C123.815 193.446 118.924 198.723 113.969 204.45C112.617 205.93 111.073 207.668 109.335 209.663C107.598 211.593 105.86 213.588 104.058 215.583C102.257 217.578 100.519 219.444 98.8458 221.182C97.1727 222.919 95.6925 224.399 94.4698 225.493C91.7027 228.132 88.292 229.483 84.3664 229.483C77.0302 229.483 72.2681 227.038 69.9514 222.147C69.3722 220.86 68.9217 219.895 68.5999 219.058C68.2782 218.286 68.0208 217.514 67.8277 216.677C67.6347 215.905 67.5059 215.004 67.4416 214.103C67.3772 213.138 67.3772 211.915 67.3772 210.435C67.3772 209.534 67.3772 208.697 67.4416 207.861C67.3129 209.47 67.2485 211.271 67.2485 213.138C67.2485 214.618 67.2485 215.84 67.3129 216.806C67.3772 217.771 67.5059 218.608 67.699 219.38C67.8921 220.152 68.1495 220.924 68.4712 221.761C68.793 222.533 69.2435 223.563 69.8227 224.85C72.1394 229.741 76.9658 232.186 84.2377 232.186C88.1633 232.186 91.574 230.835 94.3411 228.196C95.5638 227.038 97.044 225.622 98.7171 223.885C100.39 222.147 102.128 220.281 103.93 218.286C105.732 216.291 107.469 214.36 109.207 212.365C110.944 210.435 112.489 208.697 113.84 207.153C118.731 201.425 123.622 196.148 128.577 191.258C133.468 186.367 138.037 182.184 142.22 178.58C146.403 174.976 150.135 172.209 153.482 170.15C156.828 168.091 159.338 167.061 161.075 167.061C163.842 167.061 166.159 169.635 167.961 174.719C169.763 179.867 170.792 187.139 171.05 196.663C171.5 206.381 172.852 213.331 174.975 217.514C177.292 221.568 181.732 223.627 188.425 223.627C192.866 223.627 197.756 221.246 203.162 216.548C208.568 211.851 215.132 204.965 222.918 195.891C226.844 191.386 230.641 187.268 234.245 183.664C237.848 179.996 241.195 176.907 244.219 174.268C247.244 171.63 249.882 169.635 252.135 168.284C254.387 166.932 256.125 166.224 257.412 166.224C258.184 166.224 258.892 166.675 259.535 167.64C260.179 168.605 260.758 169.828 261.273 171.437C261.788 173.046 262.238 174.912 262.624 176.971C263.01 179.095 263.396 181.283 263.847 183.535C264.297 185.788 264.683 188.104 265.134 190.357C265.584 192.673 266.099 194.797 266.678 196.792C267.901 201.554 269.446 205.48 271.183 208.504C272.921 211.529 274.916 213.91 277.168 215.647C279.42 217.385 281.93 218.543 284.697 219.187C287.464 219.83 290.489 220.152 293.835 220.152C297.568 220.152 301.558 219.637 305.805 218.608C310.052 217.578 314.171 216.291 318.225 214.682C322.279 213.138 326.141 211.4 329.744 209.598C333.412 207.796 336.63 206.123 339.397 204.579C342.872 202.712 346.412 200.589 350.016 198.336C353.619 196.02 357.03 193.767 360.183 191.451C363.337 189.134 366.297 186.946 368.935 184.822C371.574 182.699 373.697 180.832 375.371 179.159C375.564 178.966 375.757 178.773 375.95 178.58C376.078 181.733 376.207 184.887 376.207 188.04C376.207 191 376.143 193.96 376.014 196.856C376.272 193.059 376.4 189.198 376.4 185.337C376.336 182.184 376.207 179.031 376.078 175.877Z" fill="#EB5D3A"></path><path d="M20.2713 200.718C23.4246 199.366 26.7066 198.015 30.1817 196.47C34.4933 194.604 38.9337 192.416 43.4384 189.971C47.9431 187.525 52.3835 184.887 56.6308 182.12C60.9424 179.353 64.9323 176.521 68.6648 173.561C70.4667 172.145 72.1398 170.729 73.7487 169.378C73.8774 168.413 74.0061 167.447 74.0704 166.482C72.4616 167.898 70.6597 169.378 68.7935 170.858C65.061 173.754 61.0068 176.65 56.7595 179.417C52.4478 182.184 48.0718 184.758 43.5671 187.268C39.0624 189.713 34.622 191.901 30.3104 193.768C26.8353 195.248 23.5533 196.663 20.4 198.015C17.2467 199.366 14.0934 200.46 10.9401 201.426C7.78685 202.391 4.50485 203.099 1.02979 203.678C1.09414 204.579 1.22284 205.415 1.2872 206.316C4.5692 205.737 7.7225 205.029 10.7471 204.128C13.9647 203.163 17.118 202.005 20.2713 200.718Z" fill="#EB5D3A"></path><path d="M357.416 179.288C354.521 181.154 351.689 182.956 348.858 184.758C346.026 186.56 343.066 188.297 339.977 190.099C336.888 191.836 333.606 193.638 330.002 195.44C326.463 197.242 322.923 198.851 319.448 200.267C315.973 201.682 312.691 202.841 309.667 203.677C306.578 204.578 304.068 205.029 302.009 205.029C296.732 205.029 292.677 203.098 289.846 199.237C287.014 195.376 284.891 189.52 283.539 181.669C282.96 177.936 282.574 174.59 282.317 171.565C282.059 168.541 281.802 165.774 281.544 163.264C281.287 160.754 280.772 158.566 280.193 156.635C279.549 154.705 278.52 153.032 277.104 151.487C276.525 150.844 275.688 150.264 274.594 149.75C273.5 149.235 272.213 148.784 270.797 148.398C269.382 148.012 267.837 147.755 266.293 147.562C264.748 147.369 263.268 147.304 261.788 147.304C259.6 147.304 256.897 148.076 253.679 149.621C251.041 150.908 248.274 152.517 245.378 154.576C247.63 153.16 249.754 151.938 251.749 150.908C254.902 149.363 257.605 148.591 259.857 148.591C261.273 148.591 262.818 148.656 264.362 148.849C265.907 149.042 267.387 149.299 268.867 149.685C270.283 150.071 271.57 150.522 272.664 151.037C273.758 151.551 274.594 152.131 275.173 152.774C276.589 154.254 277.619 155.992 278.262 157.922C278.906 159.853 279.356 162.041 279.614 164.551C279.871 167.061 280.193 169.828 280.386 172.852C280.643 175.877 281.029 179.288 281.609 182.956C282.96 190.807 285.019 196.663 287.915 200.524C290.747 204.385 294.801 206.316 300.078 206.316C302.073 206.316 304.647 205.865 307.736 204.964C310.825 204.064 314.107 202.97 317.518 201.554C320.928 200.138 324.468 198.529 328.072 196.727C331.611 194.925 334.957 193.188 338.046 191.386C341.135 189.648 344.095 187.847 346.927 186.045C349.758 184.243 352.654 182.441 355.486 180.575C358.382 178.708 361.342 176.778 364.367 174.783C367.134 172.981 370.03 171.05 373.119 168.991C370.738 170.536 368.485 172.08 366.297 173.496C363.273 175.491 360.312 177.421 357.416 179.288Z" fill="#EB5D3A"></path><path d="M76.1295 151.68C76.5156 151.423 76.8373 151.23 77.2235 151.037C77.3522 150.908 77.5452 150.779 77.7383 150.586C76.9017 151.101 76.1295 151.68 75.2285 152.26C75.4859 152.067 75.8077 151.873 76.1295 151.68Z" fill="#EB5D3A"></path><path d="M195.247 200.782C194.732 200.46 194.217 199.817 193.638 198.98C193.059 198.143 192.48 196.985 191.965 195.569C191.45 194.154 191 192.287 190.742 190.099C190.485 187.847 190.163 185.466 189.97 182.956C189.713 180.446 189.455 177.937 189.198 175.427C188.94 172.917 188.619 170.536 188.232 168.219C187.911 165.903 187.46 163.908 186.881 162.17C185.723 158.373 183.47 155.349 179.995 152.968C176.585 150.587 172.595 149.428 167.961 149.428C163.264 149.428 158.694 150.2 154.383 151.809C150.522 153.225 146.854 155.156 143.25 157.665C146.274 155.735 149.299 154.255 152.452 153.096C156.764 151.552 161.333 150.715 166.031 150.715C170.664 150.715 174.654 151.874 178.065 154.255C181.475 156.636 183.792 159.66 184.95 163.457C185.53 165.195 185.98 167.254 186.302 169.506C186.624 171.823 186.945 174.204 187.267 176.714C187.525 179.224 187.846 181.733 188.039 184.243C188.297 186.753 188.554 189.134 188.812 191.386C189.069 193.574 189.52 195.441 190.034 196.856C190.549 198.272 191.128 199.43 191.708 200.267C192.287 201.104 192.802 201.683 193.316 202.069C193.767 202.391 194.153 202.584 194.475 202.584C195.376 202.584 196.534 202.005 198.014 200.846C197.371 201.168 196.856 201.297 196.405 201.297C196.084 201.297 195.697 201.104 195.247 200.782Z" fill="#EB5D3A"></path><path d="M90.7376 196.727C90.995 195.376 91.5099 193.574 92.089 191.386C92.7326 189.198 93.4404 186.817 94.2127 184.243C94.9849 181.669 95.7572 178.966 96.5937 176.135C97.4303 173.303 98.1382 170.6 98.8461 167.962C99.4896 165.323 100.069 162.878 100.519 160.625C100.97 158.373 101.163 156.507 101.163 154.962C101.163 153.547 100.97 152.131 100.648 150.779C100.326 149.428 99.747 148.27 98.9105 147.24C98.0739 146.21 97.0442 145.438 95.7572 144.859C94.4701 144.28 92.7969 143.958 90.802 143.958C89.6436 143.958 88.2922 144.28 86.7477 144.923C85.2033 145.567 83.7231 146.339 82.3717 147.304C81.9856 147.562 81.5351 147.819 81.2134 148.141C82.3717 147.433 83.5944 146.79 84.8815 146.275C86.426 145.631 87.7774 145.309 88.9357 145.309C90.9307 145.309 92.6039 145.631 93.8909 146.21C95.178 146.79 96.272 147.626 97.0442 148.591C97.8808 149.621 98.46 150.779 98.7817 152.131C99.1035 153.482 99.2966 154.898 99.2966 156.314C99.2966 157.794 99.1035 159.724 98.653 161.977C98.2026 164.229 97.6877 166.675 96.9799 169.313C96.3363 171.952 95.5641 174.654 94.7275 177.486C93.8909 180.317 93.1187 183.02 92.3464 185.594C91.5742 188.169 90.8663 190.55 90.2228 192.738C89.5793 194.926 89.1288 196.663 88.8714 198.079C88.0348 201.554 87.4556 204.257 87.1339 206.316C86.8764 208.375 86.6834 209.984 86.6834 211.271C87.2626 210.885 87.9061 210.435 88.614 209.92C88.614 208.697 88.7427 207.088 89.0644 205.093C89.3219 202.97 89.901 200.203 90.7376 196.727Z" fill="#EB5D3A"></path><path d="M21.8799 185.723C26.8994 183.47 32.0476 180.896 37.3889 177.872C42.7302 174.847 48.2646 171.565 53.9277 167.961C54.6999 167.447 55.5365 166.932 56.3087 166.353C56.18 166.481 55.9869 166.546 55.8582 166.674C50.1952 170.278 44.6608 173.56 39.3195 176.585C33.9782 179.609 28.83 182.248 23.8105 184.436C18.7909 186.688 14.0288 188.426 9.5241 189.648C6.30645 190.549 3.15315 191.128 0.064209 191.386C0.064209 190.292 0.064209 191.257 0.064209 192.351C3.0888 192.094 4.31151 191.836 7.52916 190.935C12.0982 189.713 16.8603 187.975 21.8799 185.723Z" fill="#EB5D3A"></path></svg>