<svg xmlns="http://www.w3.org/2000/svg" width="32" height="32" viewBox="0 0 32 32" fill="none"><path d="M9.01335 29.3333H22.9867C26.6667 29.3333 28.1334 27.08 28.3067 24.3333L29 13.32C29.1867 10.44 26.8934 7.99996 24 7.99996C23.1867 7.99996 22.44 7.53329 22.0667 6.81329L21.1067 4.87996C20.4934 3.66663 18.8934 2.66663 17.5334 2.66663H14.48C13.1067 2.66663 11.5067 3.66663 10.8934 4.87996L9.93335 6.81329C9.56002 7.53329 8.81335 7.99996 8.00002 7.99996C5.10669 7.99996 2.81335 10.44 3.00002 13.32L3.69335 24.3333C3.85335 27.08 5.33335 29.3333 9.01335 29.3333Z" stroke="#39EFA1" stroke-width="2" stroke-linecap="round" stroke-linejoin="round"></path><path d="M14 10.6666H18" stroke="#39EFA1" stroke-width="2" stroke-linecap="round" stroke-linejoin="round"></path><path d="M16 24C18.3866 24 20.3333 22.0534 20.3333 19.6667C20.3333 17.28 18.3866 15.3334 16 15.3334C13.6133 15.3334 11.6666 17.28 11.6666 19.6667C11.6666 22.0534 13.6133 24 16 24Z" stroke="#39EFA1" stroke-width="2" stroke-linecap="round" stroke-linejoin="round"></path></svg>