<svg xmlns="http://www.w3.org/2000/svg" width="3000" height="3062" viewBox="0 0 3000 3062" fill="none"><g clip-path="url(#clip0_2831_277)"><g style="mix-blend-mode:multiply" opacity="0.75"><path d="M2999.34 1530.8C2999.34 2375.98 2327.98 3061.11 1499.84 3061.11C671.698 3061.11 0.339844 2375.98 0.339844 1530.8C0.339844 685.631 671.698 0.5 1499.84 0.5C2327.98 0.5 2999.34 685.631 2999.34 1530.8Z" fill="white"></path><path d="M2999.34 1530.8C2999.34 2375.98 2327.98 3061.11 1499.84 3061.11C671.698 3061.11 0.339844 2375.98 0.339844 1530.8C0.339844 685.631 671.698 0.5 1499.84 0.5C2327.98 0.5 2999.34 685.631 2999.34 1530.8Z" stroke="#E4E4E4"></path></g><g style="mix-blend-mode:multiply" opacity="0.75"><path d="M2660.49 1875.64C2660.49 2530.37 2140.84 3061.11 1499.84 3061.11C858.839 3061.11 339.188 2530.37 339.188 1875.64C339.188 1220.92 858.839 690.176 1499.84 690.176C2140.84 690.176 2660.49 1220.92 2660.49 1875.64Z" fill="white"></path><path d="M2660.49 1875.64C2660.49 2530.37 2140.84 3061.11 1499.84 3061.11C858.839 3061.11 339.188 2530.37 339.188 1875.64C339.188 1220.92 858.839 690.176 1499.84 690.176C2140.84 690.176 2660.49 1220.92 2660.49 1875.64Z" stroke="#E4E4E4"></path></g><g style="mix-blend-mode:multiply" opacity="0.75"><path d="M2597.17 1920.99C2597.17 2476.95 2155.67 2927.62 1611.08 2927.62C1066.48 2927.62 624.983 2476.95 624.983 1920.99C624.983 1365.04 1066.48 914.361 1611.08 914.361C2155.67 914.361 2597.17 1365.04 2597.17 1920.99Z" fill="white"></path><path d="M2597.17 1920.99C2597.17 2476.95 2155.67 2927.62 1611.08 2927.62C1066.48 2927.62 624.983 2476.95 624.983 1920.99C624.983 1365.04 1066.48 914.361 1611.08 914.361C2155.67 914.361 2597.17 1365.04 2597.17 1920.99Z" stroke="#E4E4E4"></path></g><g style="mix-blend-mode:multiply" opacity="0.75"><circle cx="1545.19" cy="2094.69" r="738.804" fill="white"></circle><circle cx="1545.19" cy="2094.69" r="738.804" stroke="#E4E4E4"></circle></g><g style="mix-blend-mode:multiply" opacity="0.75"><circle cx="1458.77" cy="2129.78" r="587.349" fill="white"></circle><circle cx="1458.77" cy="2129.78" r="587.349" stroke="#E4E4E4"></circle></g></g><defs><clipPath id="clip0_2831_277"><rect width="3000" height="3062" fill="white"></rect></clipPath></defs></svg>