<svg xmlns="http://www.w3.org/2000/svg" width="32" height="32" viewBox="0 0 32 32" fill="none"><path d="M23.2 25.6667H8.8C6.8 25.6667 6 24.8134 6 22.6934V21.3067C6 19.1867 6.8 18.3334 8.8 18.3334H23.2C25.2 18.3334 26 19.1867 26 21.3067V22.6934C26 24.8134 25.2 25.6667 23.2 25.6667Z" stroke="#EF398A" stroke-width="2" stroke-linecap="round" stroke-linejoin="round"></path><path d="M20.5333 14.3333H11.4666C9.46663 14.3333 8.66663 13.48 8.66663 11.36V9.97333C8.66663 7.85333 9.46663 7 11.4666 7H20.5333C22.5333 7 23.3333 7.85333 23.3333 9.97333V11.36C23.3333 13.48 22.5333 14.3333 20.5333 14.3333Z" stroke="#EF398A" stroke-width="2" stroke-linecap="round" stroke-linejoin="round"></path><path d="M16 29.3333V26.1333" stroke="#EF398A" stroke-width="2" stroke-linecap="round" stroke-linejoin="round"></path><path d="M16 17.3333V14.6666" stroke="#EF398A" stroke-width="2" stroke-linecap="round" stroke-linejoin="round"></path><path d="M16 2.66663V6.25329" stroke="#EF398A" stroke-width="2" stroke-linecap="round" stroke-linejoin="round"></path></svg>