<svg xmlns="http://www.w3.org/2000/svg" width="32" height="32" viewBox="0 0 32 32" fill="none"><path d="M12 17.3334C11.12 17.7734 10.3867 18.4267 9.83999 19.24C9.53332 19.7067 9.53332 20.2934 9.83999 20.76C10.3867 21.5734 11.12 22.2267 12 22.6667" stroke="#5353EF" stroke-width="2" stroke-linecap="round" stroke-linejoin="round"></path><path d="M20.28 17.3334C21.16 17.7734 21.8934 18.4267 22.44 19.24C22.7467 19.7067 22.7467 20.2934 22.44 20.76C21.8934 21.5734 21.16 22.2267 20.28 22.6667" stroke="#5353EF" stroke-width="2" stroke-linecap="round" stroke-linejoin="round"></path><path d="M12 29.3333H20C26.6666 29.3333 29.3333 26.6666 29.3333 20V12C29.3333 5.33329 26.6666 2.66663 20 2.66663H12C5.33329 2.66663 2.66663 5.33329 2.66663 12V20C2.66663 26.6666 5.33329 29.3333 12 29.3333Z" stroke="#5353EF" stroke-width="2" stroke-linecap="round" stroke-linejoin="round"></path><path d="M2.97327 10.68L28.5999 10.6666" stroke="#5353EF" stroke-width="2" stroke-linecap="round" stroke-linejoin="round"></path></svg>