<svg xmlns="http://www.w3.org/2000/svg" width="32" height="32" viewBox="0 0 32 32" fill="none"><path d="M17.3467 3.89326L25.2134 7.38659C27.4801 8.38659 27.4801 10.0399 25.2134 11.0399L17.3467 14.5333C16.4534 14.9333 14.9867 14.9333 14.0934 14.5333L6.22673 11.0399C3.96007 10.0399 3.96007 8.38659 6.22673 7.38659L14.0934 3.89326C14.9867 3.49326 16.4534 3.49326 17.3467 3.89326Z" stroke="#F04037" stroke-width="2" stroke-linecap="round" stroke-linejoin="round"></path><path d="M4 14.6666C4 15.7866 4.84 17.08 5.86667 17.5333L14.92 21.56C15.6133 21.8666 16.4 21.8666 17.08 21.56L26.1333 17.5333C27.16 17.08 28 15.7866 28 14.6666" stroke="#F04037" stroke-width="2" stroke-linecap="round" stroke-linejoin="round"></path><path d="M4 21.3334C4 22.5734 4.73333 23.6934 5.86667 24.2L14.92 28.2267C15.6133 28.5334 16.4 28.5334 17.08 28.2267L26.1333 24.2C27.2667 23.6934 28 22.5734 28 21.3334" stroke="#F04037" stroke-width="2" stroke-linecap="round" stroke-linejoin="round"></path></svg>